<?xml version="1.0" encoding="utf-8"?>
<!-- Generator: Adobe Illustrator 17.0.0, SVG Export Plug-In . SVG Version: 6.00 Build 0)  -->
<!DOCTYPE svg PUBLIC "-//W3C//DTD SVG 1.1//EN" "http://www.w3.org/Graphics/SVG/1.1/DTD/svg11.dtd">
<svg version="1.1" id="Ebene_1" xmlns="http://www.w3.org/2000/svg" xmlns:xlink="http://www.w3.org/1999/xlink" x="0px" y="0px"
	 width="512px" height="512px" viewBox="0 0 512 512" enable-background="new 0 0 512 512" xml:space="preserve">
<g id="EbJq9V_1_" opacity="0.18">
	<g>
		<g>
			<path d="M237,0c12.667,0,25.333,0,38,0c10.18,1.475,20.446,2.51,30.524,4.5c43.59,8.606,82.488,27.173,116.258,56.113
				c44.845,38.43,73.422,86.597,85.352,144.477c2.103,10.204,3.268,20.602,4.867,30.91c0,13,0,26,0,39
				c-0.267,0.935-0.705,1.857-0.777,2.806c-2.217,28.98-9.103,56.902-21.534,83.073C452.365,439.46,391.222,488.641,306,507.248
				c-10.193,2.226-20.66,3.198-31,4.752c-12.667,0-25.333,0-38,0c-1.611-0.287-3.212-0.693-4.836-0.843
				c-20.459-1.885-40.444-6.083-59.803-12.919c-48.693-17.193-88.79-46.349-120.142-87.382
				c-25.071-32.813-41.408-69.538-48.395-110.303C2.315,291.743,1.263,282.853,0,274c0-12.333,0-24.667,0-37
				c0.28-1.276,0.688-2.54,0.821-3.831C8.986,153.743,45.73,90.907,110.826,44.855C141.374,23.243,175.44,9.67,212.374,3.476
				C220.547,2.106,228.79,1.148,237,0z M434.671,389.52c68.373-89.234,60.53-223.858-34.961-304.752
				c-95.782-81.14-239.74-66.871-318.382,31.81c-75.11,94.25-54.174,212.299-2.921,273.483
				c15.394-11.783,33.641-17.816,51.197-25.265c24.767-10.508,49.498-21.101,74.286-31.559c3.016-1.272,4.272-2.968,4.209-6.366
				c-0.178-9.66,0.121-19.328-0.006-28.989c-0.024-1.815-0.939-3.727-1.808-5.404c-4.094-7.904-8.897-15.5-12.303-23.682
				c-2.568-6.169-3.407-13.058-5.013-19.618c-9.439-1.592-17.739-10.908-18.466-22.538c-0.904-14.465,1.45-27.393,11.752-30.204
				c-0.743-6.89-1.301-13.849-2.273-20.751c-3.082-21.886,2.596-40.928,18.328-56.633c30.423-30.369,83.766-31.486,115.222-2.104
				c14.823,13.845,22.893,30.842,20.77,51.751c-0.939,9.249-1.623,18.524-2.449,28.094c5.692,0.979,8.616,5.005,9.556,10.129
				c1.194,6.504,2.914,13.339,2.029,19.7c-1.404,10.089-5.631,19.178-17.011,22.351c-1.033,0.288-1.86,2.229-2.306,3.561
				c-3.463,10.35-4.621,22.342-10.749,30.71c-7.559,10.323-7.65,20.585-7.447,31.78c0.069,3.831,0.278,7.683-0.014,11.491
				c-0.273,3.555,1.095,5.426,4.324,6.797c23.081,9.797,46.044,19.875,69.163,29.582
				C398.208,370.792,417.737,377.141,434.671,389.52z"/>
			<path fill="#FFFFFF" d="M0,274c1.263,8.853,2.315,17.743,3.825,26.554c6.986,40.765,23.324,77.49,48.395,110.303
				c31.351,41.033,71.449,70.189,120.142,87.382c19.359,6.836,39.344,11.034,59.803,12.919c1.624,0.15,3.224,0.556,4.836,0.843
				c-78.917,0-157.834,0-237,0C0,432.667,0,353.333,0,274z"/>
			<path fill="#FFFFFF" d="M275,512c10.34-1.553,20.807-2.526,31-4.752c85.221-18.607,146.365-67.788,183.688-146.368
				c12.431-26.172,19.317-54.093,21.534-83.073c0.073-0.95,0.51-1.872,0.777-2.806c0,79,0,158,0,237C433,512,354,512,275,512z"/>
			<path fill="#FFFFFF" d="M237,0c-8.21,1.148-16.453,2.106-24.626,3.476c-36.934,6.193-71,19.767-101.548,41.379
				C45.73,90.907,8.986,153.743,0.821,233.169C0.688,234.46,0.28,235.724,0,237C0,158.083,0,79.166,0,0C79,0,158,0,237,0z"/>
			<path fill="#FFFFFF" d="M512,236c-1.598-10.308-2.763-20.706-4.867-30.91c-11.93-57.88-40.507-106.047-85.352-144.477
				C388.012,31.673,349.114,13.106,305.524,4.5C295.446,2.51,285.18,1.475,275,0c78.917,0,157.833,0,237,0
				C512,78.666,512,157.333,512,236z"/>
			<path fill="#FFFFFF" d="M434.671,389.52c-16.934-12.379-36.463-18.728-55.272-26.626c-23.118-9.707-46.082-19.785-69.163-29.582
				c-3.229-1.371-4.597-3.242-4.324-6.797c0.292-3.809,0.084-7.66,0.014-11.491c-0.203-11.195-0.112-21.457,7.447-31.78
				c6.127-8.367,7.285-20.359,10.749-30.71c0.446-1.333,1.273-3.273,2.306-3.561c11.38-3.173,15.607-12.262,17.011-22.351
				c0.885-6.361-0.835-13.196-2.029-19.7c-0.94-5.124-3.864-9.15-9.556-10.129c0.826-9.57,1.51-18.845,2.449-28.094
				c2.124-20.909-5.947-37.905-20.77-51.751c-31.456-29.382-84.8-28.265-115.222,2.104c-15.732,15.704-21.41,34.747-18.328,56.633
				c0.972,6.902,1.53,13.861,2.273,20.751c-10.302,2.811-12.656,15.74-11.752,30.204c0.727,11.63,9.026,20.946,18.466,22.538
				c1.606,6.56,2.445,13.449,5.013,19.618c3.406,8.182,8.208,15.778,12.303,23.682c0.869,1.678,1.784,3.589,1.808,5.404
				c0.128,9.662-0.171,19.329,0.006,28.989c0.063,3.397-1.193,5.093-4.209,6.366c-24.788,10.457-49.519,21.05-74.286,31.559
				c-17.556,7.449-35.803,13.483-51.197,25.265c-51.253-61.184-72.189-179.233,2.921-273.483
				c78.642-98.682,222.6-112.95,318.382-31.81C495.202,165.662,503.044,300.286,434.671,389.52z"/>
		</g>
	</g>
</g>
</svg>
