<?xml version="1.0" encoding="UTF-8" standalone="no"?>
<!-- Generator: Adobe Illustrator 16.2.1, SVG Export Plug-In . SVG Version: 6.00 Build 0)  -->

<svg
   xmlns:osb="http://www.openswatchbook.org/uri/2009/osb"
   xmlns:dc="http://purl.org/dc/elements/1.1/"
   xmlns:cc="http://creativecommons.org/ns#"
   xmlns:rdf="http://www.w3.org/1999/02/22-rdf-syntax-ns#"
   xmlns:svg="http://www.w3.org/2000/svg"
   xmlns="http://www.w3.org/2000/svg"
   xmlns:sodipodi="http://sodipodi.sourceforge.net/DTD/sodipodi-0.dtd"
   xmlns:inkscape="http://www.inkscape.org/namespaces/inkscape"
   version="1.1"
   id="Layer_1"
   x="0px"
   y="0px"
   width="500"
   height="417"
   viewBox="0 0 500 417"
   xml:space="preserve"
   inkscape:version="0.48.5 r10040"
   sodipodi:docname="comment.svg"><metadata
     id="metadata9"><rdf:RDF><cc:Work
         rdf:about=""><dc:format>image/svg+xml</dc:format><dc:type
           rdf:resource="http://purl.org/dc/dcmitype/StillImage" /><dc:title></dc:title></cc:Work></rdf:RDF></metadata><defs
     id="defs7"><linearGradient
       id="linearGradient5198"
       osb:paint="solid"><stop
         style="stop-color:#000000;stop-opacity:1;"
         offset="0"
         id="stop5200" /></linearGradient></defs><sodipodi:namedview
     pagecolor="#ffffff"
     bordercolor="#666666"
     borderopacity="1"
     objecttolerance="10"
     gridtolerance="10"
     guidetolerance="10"
     inkscape:pageopacity="0"
     inkscape:pageshadow="2"
     inkscape:window-width="1920"
     inkscape:window-height="1058"
     id="namedview5"
     showgrid="false"
     inkscape:zoom="0.4609375"
     inkscape:cx="-183.32203"
     inkscape:cy="256"
     inkscape:window-x="1600"
     inkscape:window-y="0"
     inkscape:window-maximized="1"
     inkscape:current-layer="Layer_1" /><path
     d="M 250.13005,0 C 111.90714,0 0,90.04594 0,201.07219 c 0,40.00594 14.59092,77.27531 39.60392,108.55031 1.17249,1.17282 3.77801,4.95187 4.68994,6.38531 0,0 -1.30276,-2.085 -1.43303,-2.47594 0,0 0,0 0,0 l 0,0 c 0,0 0,0 0,0 2.99635,4.30031 4.68993,9.25219 4.68993,14.595 0,1.82438 -23.319411,75.58125 -23.319411,75.58125 l 0,0 c -1.693589,5.73376 2.735797,11.59782 9.900981,13.03126 C 35.174538,417 36.21675,417 37.25896,417 c 1.69358,0 3.2569,-0.26062 4.82021,-0.65156 l 2.08442,-0.78188 65.91969,-28.66875 c 1.17248,-0.52125 11.72484,-4.56093 13.0276,-5.08219 0,0 0.78166,-0.26062 0.78166,-0.26062 0,0 -0.13028,0 -0.78166,0.26062 4.42939,-1.56374 9.37988,-2.34562 14.59092,-2.34562 4.68994,0 9.2496,0.65156 13.41844,1.95468 0.13027,0 0.26055,0 0.26055,0.13032 0.65138,0.26062 1.30276,0.39094 1.95414,0.65156 30.09377,10.29469 63.05362,13.42219 97.83733,13.42219 138.09263,0 248.82729,-83.53031 248.82729,-194.55656 C 500.2601,90.04594 388.22268,0 250.13005,0 l 0,0 z"
     id="path3"
     inkscape:connector-curvature="0"
     style="fill:#d1d1d1;fill-opacity:1" /></svg>