<?xml version="1.0" encoding="utf-8"?>
<!-- Generator: Adobe Illustrator 17.0.0, SVG Export Plug-In . SVG Version: 6.00 Build 0)  -->
<!DOCTYPE svg PUBLIC "-//W3C//DTD SVG 1.1//EN" "http://www.w3.org/Graphics/SVG/1.1/DTD/svg11.dtd">
<svg version="1.1" id="Ebene_1" xmlns="http://www.w3.org/2000/svg" xmlns:xlink="http://www.w3.org/1999/xlink" x="0px" y="0px"
	 width="335.571px" height="73.931px" viewBox="0 0 335.571 73.931" enable-background="new 0 0 335.571 73.931"
	 xml:space="preserve">
<path fill="#FFFFFF" d="M26.647,0C11.93,0,0,11.93,0,26.647c0,21.258,26.647,47.284,26.647,47.284s26.647-26.026,26.647-47.284
	C53.295,11.93,41.364,0,26.647,0z M40.558,9.318c0.787,0.608,0.389,1.003-0.074,1.499c-2.675,2.864-5.921,4.865-9.501,6.388
	c-0.666,0.283-1.03,0.191-1.381-0.447c-2.183-3.973-4.689-7.745-7.469-11.731C29.102,3.791,35.152,5.142,40.558,9.318z M5.599,20.5
	c1.786-5.9,5.386-10.331,10.759-13.342c0.618-0.347,0.982-0.274,1.403,0.336c2.544,3.689,5.002,7.429,7.359,11.591
	c-6.314,1.603-12.492,2.484-18.784,2.592C5.292,21.693,5.389,21.194,5.599,20.5z M9.126,39.835C6.448,36.153,5,32.064,4.736,27.527
	c-0.055-0.947,0.196-1.341,1.212-1.35c6.921-0.061,13.727-0.986,20.405-2.822c0.11-0.03,0.225-0.045,0.634-0.123
	c1.028,0.379,1.117,1.651,1.581,2.593c0.401,0.814-0.509,0.754-0.882,0.889c-6.999,2.53-12.411,7.087-16.664,13.087
	C10.256,40.881,9.884,40.877,9.126,39.835z M34.06,47.489c-2.376,0.756-4.789,1.207-7.008,1.144
	c-4.728,0.056-8.754-1.267-12.488-3.643c-0.965-0.614-1.006-1.113-0.395-2.027c3.819-5.706,9.127-9.465,15.416-11.98
	c0.722-0.289,1.116-0.167,1.409,0.639c1.692,4.652,3.028,9.398,4.026,14.247C35.213,46.806,34.935,47.21,34.06,47.489z
	 M48.374,31.492c-1.297,5.319-4.09,9.644-8.779,13.113c-1.073-4.977-2.234-9.637-3.854-14.169c-0.271-0.759,0.059-1.08,0.77-1.14
	c3.802-0.324,7.559-0.081,11.267,0.867C48.616,30.377,48.511,30.93,48.374,31.492z M47.419,25.781
	c-4.214-0.677-8.454-0.977-12.716-0.511c-0.602,0.066-1.002-0.056-1.195-0.673c-0.102-0.327-0.275-0.632-0.415-0.947
	c-0.963-2.164-0.961-2.161,1.214-3.241c3.429-1.703,6.55-3.841,9.138-6.683c0.603-0.662,0.896-0.627,1.385,0.075
	c2.248,3.231,3.594,6.786,4.025,11.027C49.086,25.743,48.572,25.967,47.419,25.781z"/>
<g>
	<path fill="#FFFFFF" d="M97.387,52.143l-5.953-12.337l-2.976,2.977l-2.064,9.36h-8.257l7.057-32.019h8.257l-2.736,12.529
		l12.145-12.529h10.609L97.771,35.102l9.312,17.041H97.387z"/>
	<path fill="#FFFFFF" d="M108.858,38.174c0-10.321,8.065-18.578,18.914-18.578c9.169,0,16.226,5.761,16.226,14.449
		c0,10.369-8.064,18.674-18.914,18.674C115.915,52.719,108.858,46.958,108.858,38.174z M135.404,34.669
		c0-4.656-3.36-7.776-8.113-7.776c-5.616,0-9.841,4.849-9.841,10.753c0,4.656,3.36,7.776,8.113,7.776
		C131.18,45.422,135.404,40.573,135.404,34.669z"/>
	<path fill="#FFFFFF" d="M162.379,52.143l-2.976-10.753h-4.608l-2.352,10.753h-8.257l7.057-32.019h14.593
		c5.521,0,10.369,3.601,10.369,9.36c0,5.713-3.84,10.081-8.544,11.329l3.84,11.329H162.379z M162.955,34.189
		c2.784,0,4.656-1.488,4.656-3.841c0-1.776-1.584-3.024-3.408-3.024h-6.289l-1.536,6.865h6.433H162.955z"/>
	<path fill="#FFFFFF" d="M175.913,52.143l7.057-32.019h16.706c6,0,8.977,3.84,8.977,7.824c0,4.177-3.409,7.921-7.249,8.257
		c3.024,0.816,4.561,3.648,4.561,6.385c0,4.368-3.024,9.553-11.281,9.553H175.913z M197.707,41.918c0-1.44-1.008-2.496-2.64-2.496
		h-8.065l-1.296,5.76h8.256C196.315,45.182,197.707,43.742,197.707,41.918z M199.819,29.389c0-1.296-1.008-2.305-2.497-2.305h-7.584
		l-1.2,5.329h7.921C199.003,32.413,199.819,30.829,199.819,29.389z"/>
	<path fill="#FFFFFF" d="M206.681,49.311l4.368-6.192c0.96,1.296,2.736,2.304,4.656,2.304c2.688,0,4.32-1.68,4.896-4.368
		l4.608-20.93h8.257l-4.656,21.025c-1.729,7.921-5.473,11.569-12.481,11.569C212.777,52.719,208.937,51.662,206.681,49.311z"/>
	<path fill="#FFFFFF" d="M253.002,52.143l-0.576-4.608h-12.625l-2.544,4.608h-9.793l19.105-32.019h10.369l5.04,32.019H253.002z
		 M250.361,28.284l-6.721,12.05h8.161L250.361,28.284z"/>
	<path fill="#FFFFFF" d="M263.753,38.174c0-10.609,8.112-18.578,19.729-18.578c7.248,0,11.713,4.272,13.489,8.4l-7.585,3.169
		c-0.816-2.305-3.696-4.272-7.104-4.272c-5.425,0-9.937,4.704-9.937,10.753c0,4.128,2.928,7.776,8.112,7.776
		c2.16,0,3.937-0.816,5.376-1.92l0.528-2.544h-7.2l1.632-7.201h15.409l-2.832,12.77c-3.072,3.888-7.824,6.192-13.394,6.192
		C271.193,52.719,263.753,47.294,263.753,38.174z"/>
	<path fill="#FFFFFF" d="M297.016,52.143l7.057-32.019h13.201c7.104,0,14.209,5.424,14.209,13.777
		c0,8.257-5.425,18.241-21.073,18.241H297.016z M311.945,44.942c6.864,0,10.992-4.801,10.992-10.466
		c0-3.983-2.928-7.152-7.152-7.152h-5.04l-3.889,17.618h4.849H311.945z"/>
</g>
</svg>
